<!-- Shared icon sprite — Lucide icons (ISC license), inlined as <symbol> defs.
     Usage: <svg class="ico" aria-hidden="true"><use href="#icon-NAME"></use></svg>
     Icons inherit color via currentColor — no per-icon color edits needed. -->
<svg xmlns="http://www.w3.org/2000/svg" style="display:none">

  <symbol id="icon-book" viewBox="0 0 24 24" fill="none" stroke="currentColor" stroke-width="2" stroke-linecap="round" stroke-linejoin="round">
    <path d="M4 19.5v-15A2.5 2.5 0 0 1 6.5 2H19a1 1 0 0 1 1 1v18a1 1 0 0 1-1 1H6.5a1 1 0 0 1 0-5H20" />
  </symbol>

  <symbol id="icon-target" viewBox="0 0 24 24" fill="none" stroke="currentColor" stroke-width="2" stroke-linecap="round" stroke-linejoin="round">
    <circle cx="12" cy="12" r="10" />
    <circle cx="12" cy="12" r="6" />
    <circle cx="12" cy="12" r="2" />
  </symbol>

  <symbol id="icon-sparkles" viewBox="0 0 24 24" fill="none" stroke="currentColor" stroke-width="2" stroke-linecap="round" stroke-linejoin="round">
    <path d="M11.017 2.814a1 1 0 0 1 1.966 0l1.051 5.558a2 2 0 0 0 1.594 1.594l5.558 1.051a1 1 0 0 1 0 1.966l-5.558 1.051a2 2 0 0 0-1.594 1.594l-1.051 5.558a1 1 0 0 1-1.966 0l-1.051-5.558a2 2 0 0 0-1.594-1.594l-5.558-1.051a1 1 0 0 1 0-1.966l5.558-1.051a2 2 0 0 0 1.594-1.594z" />
    <path d="M20 2v4" />
    <path d="M22 4h-4" />
    <circle cx="4" cy="20" r="2" />
  </symbol>

  <symbol id="icon-help-circle" viewBox="0 0 24 24" fill="none" stroke="currentColor" stroke-width="2" stroke-linecap="round" stroke-linejoin="round">
    <circle cx="12" cy="12" r="10" />
    <path d="M9.09 9a3 3 0 0 1 5.83 1c0 2-3 3-3 3" />
    <path d="M12 17h.01" />
  </symbol>

  <symbol id="icon-user-round" viewBox="0 0 24 24" fill="none" stroke="currentColor" stroke-width="2" stroke-linecap="round" stroke-linejoin="round">
    <circle cx="12" cy="8" r="5" />
    <path d="M20 21a8 8 0 0 0-16 0" />
  </symbol>

  <symbol id="icon-dumbbell" viewBox="0 0 24 24" fill="none" stroke="currentColor" stroke-width="2" stroke-linecap="round" stroke-linejoin="round">
    <path d="M17.596 12.768a2 2 0 1 0 2.829-2.829l-1.768-1.767a2 2 0 0 0 2.828-2.829l-2.828-2.828a2 2 0 0 0-2.829 2.828l-1.767-1.768a2 2 0 1 0-2.829 2.829z" />
    <path d="m2.5 21.5 1.4-1.4" />
    <path d="m20.1 3.9 1.4-1.4" />
    <path d="M5.343 21.485a2 2 0 1 0 2.829-2.828l1.767 1.768a2 2 0 1 0 2.829-2.829l-6.364-6.364a2 2 0 1 0-2.829 2.829l1.768 1.767a2 2 0 0 0-2.828 2.829z" />
    <path d="m9.6 14.4 4.8-4.8" />
  </symbol>

  <symbol id="icon-hourglass" viewBox="0 0 24 24" fill="none" stroke="currentColor" stroke-width="2" stroke-linecap="round" stroke-linejoin="round">
    <path d="M5 22h14" />
    <path d="M5 2h14" />
    <path d="M17 22v-4.172a2 2 0 0 0-.586-1.414L12 12l-4.414 4.414A2 2 0 0 0 7 17.828V22" />
    <path d="M7 2v4.172a2 2 0 0 0 .586 1.414L12 12l4.414-4.414A2 2 0 0 0 17 6.172V2" />
  </symbol>

  <symbol id="icon-refresh-cw" viewBox="0 0 24 24" fill="none" stroke="currentColor" stroke-width="2" stroke-linecap="round" stroke-linejoin="round">
    <path d="M3 12a9 9 0 0 1 9-9 9.75 9.75 0 0 1 6.74 2.74L21 8" />
    <path d="M21 3v5h-5" />
    <path d="M21 12a9 9 0 0 1-9 9 9.75 9.75 0 0 1-6.74-2.74L3 16" />
    <path d="M8 16H3v5" />
  </symbol>

  <symbol id="icon-book-open-text" viewBox="0 0 24 24" fill="none" stroke="currentColor" stroke-width="2" stroke-linecap="round" stroke-linejoin="round">
    <path d="M12 5v16" />
    <path d="M16 13h2" />
    <path d="M16 9h2" />
    <path d="M20.001 19A2 2 0 0022 17V5a2 2 0 00-1.999-2L16 3.002A5 5 0 0012 5a5 5 0 00-4-2H4a2 2 0 00-2 2v12a2 2 0 001.999 2H8a5 5 0 014 2 5 5 0 014-2z" />
    <path d="M6 13h2" />
    <path d="M6 9h2" />
  </symbol>

  <symbol id="icon-library" viewBox="0 0 24 24" fill="none" stroke="currentColor" stroke-width="2" stroke-linecap="round" stroke-linejoin="round">
    <path d="m16 6 4 14" />
    <path d="M12 6v14" />
    <path d="M8 8v12" />
    <path d="M4 4v16" />
  </symbol>

  <symbol id="icon-trophy" viewBox="0 0 24 24" fill="none" stroke="currentColor" stroke-width="2" stroke-linecap="round" stroke-linejoin="round">
    <path d="M10 14.66V17a1 1 0 0 1-1 1 2 2 0 0 0-2 2v2" />
    <path d="M14 14.66V17a1 1 0 0 0 1 1 2 2 0 0 1 2 2v2" />
    <path d="M17.916 10H19.5A2.5 2.5 0 0 0 22 7.5V5a1 1 0 0 0-1-1h-3" />
    <path d="M4 22h16" />
    <path d="M6 9a6 6 0 0 0 12 0V3a1 1 0 0 0-1-1H7a1 1 0 0 0-1 1z" />
    <path d="M6.084 10H4.5A2.5 2.5 0 0 1 2 7.5V5a1 1 0 0 1 1-1h3" />
  </symbol>

  <symbol id="icon-volume-2" viewBox="0 0 24 24" fill="none" stroke="currentColor" stroke-width="2" stroke-linecap="round" stroke-linejoin="round">
    <path d="M11 4.702a.705.705 0 0 0-1.203-.498L6.413 7.587A1.4 1.4 0 0 1 5.416 8H3a1 1 0 0 0-1 1v6a1 1 0 0 0 1 1h2.416a1.4 1.4 0 0 1 .997.413l3.383 3.384A.705.705 0 0 0 11 19.298z" />
    <path d="M16 9a5 5 0 0 1 0 6" />
    <path d="M19.364 18.364a9 9 0 0 0 0-12.728" />
  </symbol>

  <symbol id="icon-bar-chart-3" viewBox="0 0 24 24" fill="none" stroke="currentColor" stroke-width="2" stroke-linecap="round" stroke-linejoin="round">
    <path d="M3 3v16a2 2 0 0 0 2 2h16" />
    <path d="M18 17V9" />
    <path d="M13 17V5" />
    <path d="M8 17v-3" />
  </symbol>

</svg>
